<svg xmlns="http://www.w3.org/2000/svg" xmlns:xlink="http://www.w3.org/1999/xlink" width="1200" zoomAndPan="magnify" viewBox="0 0 900 899.99999" height="1200" preserveAspectRatio="xMidYMid meet" version="1.0"><path fill="#000000" d="M 494.226562 6.859375 L 494.226562 331.460938 C 494.226562 382.882812 440.660156 415.558594 395.667969 391.453125 L 74.816406 219.511719 C 99.457031 178.800781 129.988281 142.378906 165.875 111.308594 L 417.628906 347.53125 C 431.019531 359.851562 451.910156 346.457031 446.554688 328.78125 L 349.066406 17.035156 C 381.742188 9.003906 416.023438 4.71875 451.375 4.71875 C 486.726562 4.71875 480.300781 5.253906 494.226562 6.859375 Z M 494.226562 6.859375 " fill-opacity="1" fill-rule="nonzero"/><path fill="#000000" d="M 406.914062 894.960938 L 406.914062 571.964844 C 406.914062 520.542969 460.480469 487.867188 505.472656 511.972656 L 826.863281 684.449219 C 802.222656 725.160156 771.15625 761.582031 735.265625 792.117188 L 483.511719 556.429688 C 470.121094 544.113281 449.230469 557.503906 454.589844 575.179688 L 552.074219 885.851562 C 519.402344 893.351562 485.65625 897.636719 451.375 897.636719 C 417.09375 897.636719 421.914062 897.101562 407.453125 895.496094 Z M 406.914062 894.960938 " fill-opacity="1" fill-rule="nonzero"/><path fill="#000000" d="M 553.683594 418.234375 L 786.6875 162.195312 C 756.15625 125.773438 720.269531 94.707031 680.09375 69.53125 L 509.757812 395.738281 C 486.191406 441.269531 518.328125 495.902344 569.214844 495.902344 L 888.996094 495.902344 C 890.601562 480.90625 891.140625 465.90625 891.140625 450.910156 C 891.140625 415.558594 886.855469 381.277344 879.355469 348.601562 L 571.894531 447.695312 C 554.753906 453.050781 541.363281 432.160156 553.683594 418.234375 Z M 553.683594 418.234375 " fill-opacity="1" fill-rule="nonzero"/><path fill="#000000" d="M 13.214844 407.523438 L 332.460938 407.523438 C 382.8125 407.523438 415.484375 462.15625 391.917969 507.152344 L 222.652344 831.753906 C 182.480469 807.113281 146.59375 775.511719 116.0625 739.621094 L 347.996094 485.191406 C 360.316406 471.800781 346.921875 450.375 329.78125 455.730469 L 23.394531 554.289062 C 15.359375 521.078125 11.609375 486.261719 11.609375 450.910156 C 11.609375 415.558594 12.144531 421.984375 13.753906 407.523438 Z M 13.214844 407.523438 " fill-opacity="1" fill-rule="nonzero"/></svg>