<svg xmlns="http://www.w3.org/2000/svg" xmlns:xlink="http://www.w3.org/1999/xlink" width="1200" zoomAndPan="magnify" viewBox="0 0 900 899.99999" height="1200" preserveAspectRatio="xMidYMid meet" version="1.0"><rect x="-90" width="1080" fill="#ffffff" y="-89.999999" height="1079.999988" fill-opacity="1"/><rect x="-90" width="1080" fill="#8039e9" y="-89.999999" height="1079.999988" fill-opacity="1"/><path fill="#ffffff" d="M 813.359375 406.140625 L 595.558594 406.140625 C 583.140625 406.140625 573.660156 418.859375 578.101562 430.738281 L 630.539062 566.460938 C 632.941406 572.398438 628.140625 578.878906 621.660156 578.578125 L 554.699219 574.441406 C 551.761719 574.140625 548.761719 575.640625 547.019531 578.28125 L 494.878906 652.078125 C 492.238281 656.21875 486.601562 657.71875 482.160156 654.71875 L 405.121094 602.28125 C 402.179688 600.179688 397.980469 600.179688 395.039062 602.28125 L 288.359375 674.578125 C 281.519531 679.320312 272.339844 672.78125 274.738281 664.800781 L 304.378906 558.421875 C 305.578125 553.980469 303.480469 549.539062 299.039062 547.738281 L 242.460938 524.640625 C 236.820312 522.238281 235.078125 515.460938 238.917969 510.71875 L 289.019531 449.101562 C 291.417969 446.160156 291.660156 441.71875 289.320312 438.421875 L 247.261719 377.699219 C 243.417969 372.058594 246.960938 364.378906 254.101562 363.78125 L 319.261719 358.738281 C 324 358.441406 327.839844 354.300781 327.539062 349.261719 L 322.5 258 C 322.199219 251.460938 328.738281 246.71875 334.917969 249.121094 L 415.800781 282.601562 C 419.339844 284.101562 423.480469 283.199219 425.878906 280.199219 L 481.558594 217.980469 C 486 212.941406 493.980469 214.441406 496.679688 220.378906 L 530.160156 306.601562 C 534.601562 317.28125 547.917969 321.121094 557.398438 313.980469 L 688.378906 216.480469 C 703.199219 205.5 693.71875 181.800781 675.359375 184.5 L 589.140625 196.078125 C 585 196.679688 581.160156 194.28125 579.660156 190.441406 L 534.300781 73.980469 C 529.261719 61.859375 513.539062 58.859375 504.660156 68.640625 L 405.960938 175.621094 C 403.320312 178.261719 399.417969 179.160156 395.878906 177.71875 L 266.101562 122.878906 C 254.519531 118.140625 241.800781 126.121094 241.199219 138.898438 L 236.460938 272.820312 C 236.160156 277.558594 232.621094 281.101562 228.179688 281.398438 L 109.679688 289.078125 C 95.761719 289.980469 88.320312 305.699219 96.058594 316.921875 L 174.898438 433.078125 C 177.300781 436.320312 177 440.761719 174.300781 444.058594 L 94.320312 535.921875 C 86.339844 545.101562 89.578125 559.320312 100.859375 564.058594 L 192.71875 603.78125 C 196.859375 605.578125 198.960938 610.019531 197.761719 614.160156 L 139.078125 843.480469 C 134.941406 859.800781 153.300781 872.21875 166.917969 862.441406 L 387.359375 704.21875 C 390.300781 702.121094 394.5 701.820312 397.738281 704.21875 L 498.179688 774.71875 C 506.460938 780.660156 517.738281 778.261719 523.378906 769.980469 L 586.199219 673.679688 C 588 670.738281 591.539062 669.238281 594.78125 669.839844 L 745.019531 687.898438 C 757.140625 689.699219 769.320312 679.621094 764.878906 668.339844 L 702.359375 506.582031 C 700.558594 502.140625 702.359375 497.398438 707.699219 494.699219 L 821.761719 440.761719 C 838.621094 432.179688 832.738281 406.082031 813.480469 406.082031 Z M 813.359375 406.140625 " fill-opacity="1" fill-rule="nonzero"/></svg>