<svg xmlns="http://www.w3.org/2000/svg" xmlns:xlink="http://www.w3.org/1999/xlink" width="1200" zoomAndPan="magnify" viewBox="0 0 900 899.99999" height="1200" preserveAspectRatio="xMidYMid meet" version="1.0"><rect x="-90" width="1080" fill="#ffffff" y="-89.999999" height="1079.999988" fill-opacity="1"/><rect x="-90" width="1080" fill="#ff5c36" y="-89.999999" height="1079.999988" fill-opacity="1"/><path fill="#ffffff" d="M 681.148438 297.414062 L 681.148438 190.6875 C 682.902344 189.867188 684.625 188.984375 686.316406 188.042969 C 688.007812 187.101562 689.664062 186.097656 691.285156 185.039062 C 692.90625 183.980469 694.488281 182.867188 696.03125 181.695312 C 697.574219 180.523438 699.074219 179.300781 700.53125 178.023438 C 701.984375 176.75 703.394531 175.421875 704.757812 174.046875 C 706.121094 172.671875 707.433594 171.25 708.695312 169.78125 C 709.957031 168.3125 711.167969 166.800781 712.324219 165.25 C 713.480469 163.695312 714.582031 162.101562 715.625 160.472656 C 716.667969 158.839844 717.652344 157.175781 718.578125 155.476562 C 719.507812 153.773438 720.371094 152.042969 721.175781 150.28125 C 721.980469 148.519531 722.722656 146.734375 723.402344 144.921875 C 724.078125 143.105469 724.691406 141.269531 725.242188 139.414062 C 725.792969 137.558594 726.273438 135.683594 726.691406 133.792969 C 727.109375 131.902344 727.457031 130 727.742188 128.082031 C 728.023438 126.167969 728.238281 124.242188 728.386719 122.3125 C 728.535156 120.382812 728.613281 118.449219 728.625 116.511719 L 728.625 114 C 728.621094 112.65625 728.585938 111.3125 728.515625 109.96875 C 728.445312 108.625 728.34375 107.285156 728.207031 105.949219 C 728.074219 104.609375 727.90625 103.277344 727.707031 101.949219 C 727.507812 100.617188 727.273438 99.292969 727.007812 97.976562 C 726.742188 96.660156 726.445312 95.347656 726.117188 94.042969 C 725.789062 92.738281 725.429688 91.445312 725.035156 90.160156 C 724.644531 88.875 724.21875 87.597656 723.765625 86.332031 C 723.308594 85.066406 722.824219 83.8125 722.308594 82.574219 C 721.792969 81.332031 721.246094 80.101562 720.671875 78.886719 C 720.09375 77.671875 719.488281 76.472656 718.855469 75.289062 C 718.21875 74.101562 717.554688 72.933594 716.863281 71.78125 C 716.171875 70.628906 715.453125 69.492188 714.703125 68.375 C 713.957031 67.257812 713.183594 66.160156 712.382812 65.082031 C 711.578125 64 710.753906 62.941406 709.898438 61.902344 C 709.046875 60.863281 708.167969 59.84375 707.265625 58.847656 C 706.363281 57.851562 705.4375 56.878906 704.484375 55.929688 C 703.535156 54.976562 702.5625 54.050781 701.566406 53.148438 C 700.570312 52.242188 699.554688 51.363281 698.515625 50.511719 C 697.476562 49.65625 696.417969 48.832031 695.335938 48.027344 C 694.257812 47.226562 693.160156 46.453125 692.042969 45.703125 C 690.925781 44.957031 689.789062 44.234375 688.636719 43.542969 C 687.484375 42.851562 686.316406 42.1875 685.132812 41.550781 C 683.949219 40.914062 682.746094 40.308594 681.535156 39.734375 C 680.320312 39.15625 679.089844 38.609375 677.851562 38.09375 C 676.609375 37.578125 675.355469 37.089844 674.089844 36.636719 C 672.824219 36.179688 671.550781 35.753906 670.265625 35.363281 C 668.976562 34.96875 667.683594 34.609375 666.378906 34.277344 C 665.078125 33.949219 663.765625 33.652344 662.449219 33.386719 C 661.128906 33.121094 659.804688 32.886719 658.476562 32.6875 C 657.148438 32.484375 655.8125 32.316406 654.476562 32.183594 C 653.136719 32.046875 651.796875 31.945312 650.457031 31.875 C 649.113281 31.804688 647.769531 31.765625 646.425781 31.761719 L 643.914062 31.761719 C 642.566406 31.765625 641.222656 31.800781 639.882812 31.871094 C 638.539062 31.941406 637.199219 32.042969 635.859375 32.179688 C 634.523438 32.3125 633.191406 32.480469 631.859375 32.679688 C 630.53125 32.882812 629.207031 33.113281 627.890625 33.378906 C 626.570312 33.644531 625.261719 33.941406 623.957031 34.269531 C 622.652344 34.597656 621.359375 34.960938 620.070312 35.351562 C 618.785156 35.746094 617.511719 36.167969 616.246094 36.621094 C 614.980469 37.078125 613.726562 37.5625 612.484375 38.078125 C 611.242188 38.59375 610.015625 39.140625 608.800781 39.71875 C 607.585938 40.292969 606.386719 40.898438 605.199219 41.535156 C 604.015625 42.167969 602.847656 42.832031 601.695312 43.523438 C 600.542969 44.214844 599.40625 44.933594 598.289062 45.683594 C 597.171875 46.429688 596.074219 47.203125 594.992188 48.007812 C 593.914062 48.808594 592.855469 49.632812 591.816406 50.488281 C 590.773438 51.339844 589.757812 52.21875 588.761719 53.121094 C 587.765625 54.023438 586.792969 54.949219 585.839844 55.902344 C 584.890625 56.851562 583.960938 57.824219 583.058594 58.820312 C 582.15625 59.816406 581.277344 60.835938 580.425781 61.871094 C 579.570312 62.910156 578.742188 63.972656 577.941406 65.050781 C 577.140625 66.128906 576.363281 67.226562 575.617188 68.34375 C 574.867188 69.460938 574.148438 70.597656 573.457031 71.75 C 572.761719 72.902344 572.097656 74.070312 571.464844 75.253906 C 570.828125 76.441406 570.222656 77.640625 569.644531 78.855469 C 569.070312 80.070312 568.523438 81.296875 568.003906 82.539062 C 567.488281 83.777344 567.003906 85.03125 566.546875 86.296875 C 566.09375 87.5625 565.667969 88.835938 565.273438 90.125 C 564.882812 91.410156 564.519531 92.703125 564.191406 94.007812 C 563.863281 95.3125 563.5625 96.621094 563.296875 97.941406 C 563.03125 99.257812 562.800781 100.582031 562.597656 101.910156 C 562.398438 103.238281 562.230469 104.574219 562.09375 105.910156 C 561.960938 107.25 561.855469 108.589844 561.785156 109.933594 C 561.714844 111.273438 561.679688 112.617188 561.675781 113.960938 L 561.675781 116.476562 C 561.683594 118.402344 561.757812 120.324219 561.902344 122.246094 C 562.046875 124.164062 562.257812 126.078125 562.535156 127.984375 C 562.8125 129.890625 563.15625 131.78125 563.566406 133.664062 C 563.976562 135.546875 564.453125 137.410156 564.996094 139.257812 C 565.535156 141.105469 566.140625 142.933594 566.8125 144.738281 C 567.480469 146.542969 568.210938 148.324219 569.007812 150.078125 C 569.800781 151.832031 570.65625 153.558594 571.570312 155.25 C 572.488281 156.945312 573.460938 158.605469 574.492188 160.230469 C 575.523438 161.859375 576.613281 163.445312 577.753906 164.996094 C 578.898438 166.546875 580.09375 168.054688 581.34375 169.519531 C 582.59375 170.984375 583.890625 172.40625 585.238281 173.78125 C 586.589844 175.152344 587.984375 176.480469 589.425781 177.757812 C 590.867188 179.035156 592.351562 180.257812 593.878906 181.429688 C 595.40625 182.601562 596.972656 183.722656 598.578125 184.785156 C 600.183594 185.847656 601.824219 186.851562 603.503906 187.800781 C 605.179688 188.746094 606.886719 189.632812 608.625 190.460938 L 609.113281 190.6875 L 609.113281 297.636719 C 598.957031 299.1875 588.945312 301.402344 579.082031 304.277344 C 569.214844 307.152344 559.582031 310.664062 550.183594 314.8125 C 540.785156 318.957031 531.695312 323.707031 522.921875 329.054688 C 514.152344 334.402344 505.769531 340.304688 497.773438 346.761719 L 498.226562 346.425781 L 204.675781 117.824219 C 205.136719 116.097656 205.546875 114.355469 205.90625 112.605469 C 206.269531 110.851562 206.578125 109.09375 206.839844 107.324219 C 207.101562 105.554688 207.308594 103.777344 207.46875 101.996094 C 207.625 100.214844 207.734375 98.429688 207.789062 96.640625 C 207.847656 94.855469 207.851562 93.066406 207.804688 91.277344 C 207.757812 89.488281 207.660156 87.703125 207.511719 85.921875 C 207.363281 84.140625 207.164062 82.363281 206.914062 80.589844 C 206.664062 78.820312 206.363281 77.058594 206.011719 75.304688 C 205.660156 73.550781 205.257812 71.808594 204.804688 70.078125 C 204.355469 68.347656 203.855469 66.628906 203.304688 64.929688 C 202.753906 63.226562 202.15625 61.539062 201.511719 59.871094 C 200.863281 58.207031 200.171875 56.558594 199.429688 54.929688 C 198.691406 53.300781 197.902344 51.695312 197.070312 50.113281 C 196.238281 48.527344 195.359375 46.972656 194.4375 45.4375 C 193.515625 43.90625 192.550781 42.402344 191.542969 40.921875 C 190.535156 39.445312 189.484375 38 188.394531 36.582031 C 187.304688 35.164062 186.171875 33.777344 185.003906 32.425781 C 183.832031 31.074219 182.625 29.757812 181.378906 28.472656 C 180.132812 27.1875 178.851562 25.941406 177.53125 24.734375 C 176.214844 23.523438 174.863281 22.351562 173.480469 21.21875 C 172.09375 20.085938 170.679688 18.996094 169.230469 17.945312 C 167.785156 16.894531 166.308594 15.882812 164.804688 14.917969 C 163.300781 13.949219 161.769531 13.027344 160.210938 12.148438 C 158.652344 11.269531 157.070312 10.4375 155.464844 9.648438 C 153.859375 8.859375 152.230469 8.117188 150.585938 7.421875 C 148.9375 6.726562 147.269531 6.082031 145.585938 5.480469 C 143.898438 4.882812 142.199219 4.332031 140.480469 3.828125 C 138.765625 3.328125 137.035156 2.875 135.292969 2.472656 C 133.550781 2.066406 131.796875 1.714844 130.035156 1.414062 C 128.269531 1.109375 126.5 0.859375 124.722656 0.65625 C 122.945312 0.457031 121.164062 0.308594 119.378906 0.207031 C 117.59375 0.109375 115.804688 0.0625 114.015625 0.0664062 C 112.226562 0.0664062 110.441406 0.121094 108.65625 0.230469 C 106.871094 0.335938 105.089844 0.492188 103.3125 0.699219 C 101.535156 0.90625 99.765625 1.164062 98.003906 1.476562 C 96.242188 1.785156 94.492188 2.144531 92.75 2.554688 C 91.007812 2.964844 89.28125 3.421875 87.566406 3.929688 C 85.851562 4.441406 84.152344 4.996094 82.46875 5.605469 C 80.789062 6.210938 79.125 6.863281 77.476562 7.566406 C 75.832031 8.265625 74.207031 9.015625 72.605469 9.808594 C 71.003906 10.601562 69.425781 11.441406 67.871094 12.328125 C 66.316406 13.210938 64.789062 14.140625 63.289062 15.113281 C 61.785156 16.085938 60.3125 17.101562 58.871094 18.15625 C 57.429688 19.214844 56.015625 20.3125 54.636719 21.449219 C 53.253906 22.585938 51.910156 23.765625 50.597656 24.980469 C 49.285156 26.195312 48.007812 27.445312 46.765625 28.734375 C 45.523438 30.023438 44.320312 31.34375 43.15625 32.703125 C 41.992188 34.058594 40.867188 35.449219 39.78125 36.871094 C 38.695312 38.289062 37.652344 39.742188 36.648438 41.222656 C 35.644531 42.703125 34.6875 44.214844 33.769531 45.75 C 32.855469 47.285156 31.984375 48.847656 31.15625 50.433594 C 30.332031 52.019531 29.550781 53.628906 28.816406 55.261719 C 28.082031 56.890625 27.394531 58.542969 26.753906 60.210938 C 26.113281 61.882812 25.523438 63.570312 24.980469 65.273438 C 24.4375 66.976562 23.945312 68.695312 23.5 70.429688 C 23.054688 72.160156 22.660156 73.90625 22.316406 75.660156 C 21.96875 77.414062 21.675781 79.179688 21.433594 80.953125 C 21.1875 82.722656 20.996094 84.5 20.855469 86.285156 C 20.714844 88.066406 20.621094 89.851562 20.582031 91.640625 C 20.542969 93.429688 20.554688 95.21875 20.617188 97.003906 C 20.683594 98.792969 20.796875 100.578125 20.960938 102.355469 C 21.128906 104.136719 21.34375 105.914062 21.609375 107.683594 C 21.878906 109.449219 22.195312 111.210938 22.5625 112.960938 C 22.929688 114.710938 23.347656 116.449219 23.816406 118.175781 C 24.28125 119.902344 24.800781 121.613281 25.367188 123.3125 C 25.929688 125.007812 26.542969 126.6875 27.207031 128.347656 C 27.867188 130.011719 28.578125 131.652344 29.332031 133.273438 C 30.089844 134.894531 30.890625 136.492188 31.738281 138.066406 C 32.585938 139.640625 33.476562 141.191406 34.414062 142.714844 C 35.351562 144.238281 36.328125 145.734375 37.351562 147.203125 C 38.375 148.671875 39.4375 150.109375 40.539062 151.515625 C 41.644531 152.921875 42.789062 154.296875 43.972656 155.640625 C 45.15625 156.980469 46.375 158.289062 47.632812 159.558594 C 48.890625 160.832031 50.183594 162.066406 51.515625 163.261719 C 52.84375 164.460938 54.203125 165.617188 55.597656 166.738281 C 56.996094 167.855469 58.421875 168.933594 59.878906 169.972656 C 61.335938 171.011719 62.820312 172.003906 64.332031 172.957031 C 65.847656 173.910156 67.386719 174.820312 68.953125 175.683594 C 70.519531 176.546875 72.109375 177.367188 73.722656 178.140625 C 75.335938 178.914062 76.96875 179.640625 78.625 180.320312 C 80.277344 180.996094 81.949219 181.628906 83.640625 182.214844 C 85.332031 182.796875 87.039062 183.332031 88.757812 183.816406 C 90.480469 184.304688 92.214844 184.738281 93.960938 185.125 C 95.707031 185.511719 97.464844 185.847656 99.230469 186.136719 C 100.996094 186.421875 102.765625 186.65625 104.546875 186.839844 C 106.324219 187.023438 108.109375 187.160156 109.894531 187.242188 C 111.683594 187.324219 113.46875 187.355469 115.257812 187.332031 C 117.046875 187.3125 118.832031 187.242188 120.617188 187.117188 C 122.402344 186.996094 124.183594 186.824219 125.957031 186.597656 C 127.730469 186.375 129.496094 186.097656 131.257812 185.773438 C 133.015625 185.445312 134.761719 185.070312 136.5 184.644531 C 138.238281 184.21875 139.960938 183.742188 141.671875 183.21875 C 143.382812 182.695312 145.074219 182.121094 146.75 181.5 C 148.429688 180.875 150.085938 180.207031 151.726562 179.492188 C 153.363281 178.773438 154.980469 178.011719 156.574219 177.199219 C 158.171875 176.390625 159.742188 175.535156 161.289062 174.636719 L 160.835938 174.863281 L 449.4375 399.523438 C 443.09375 409.035156 437.484375 418.964844 432.609375 429.304688 C 427.738281 439.648438 423.652344 450.292969 420.351562 461.238281 C 417.054688 472.1875 414.582031 483.316406 412.933594 494.628906 C 411.285156 505.945312 410.476562 517.316406 410.511719 528.75 C 410.511719 579.113281 426.449219 625.800781 453.523438 663.976562 L 453.039062 663.261719 L 365.210938 751.085938 C 358.140625 748.804688 350.890625 747.617188 343.460938 747.523438 L 343.386719 747.523438 C 342.140625 747.523438 340.894531 747.554688 339.648438 747.617188 C 338.402344 747.679688 337.15625 747.769531 335.914062 747.890625 C 334.671875 748.015625 333.433594 748.167969 332.203125 748.351562 C 330.96875 748.535156 329.738281 748.746094 328.515625 748.988281 C 327.289062 749.234375 326.074219 749.507812 324.863281 749.808594 C 323.652344 750.113281 322.449219 750.445312 321.257812 750.808594 C 320.0625 751.171875 318.878906 751.5625 317.703125 751.980469 C 316.527344 752.402344 315.367188 752.851562 314.210938 753.328125 C 313.058594 753.804688 311.917969 754.3125 310.792969 754.84375 C 309.664062 755.378906 308.550781 755.9375 307.449219 756.527344 C 306.347656 757.117188 305.265625 757.730469 304.195312 758.371094 C 303.125 759.011719 302.070312 759.679688 301.03125 760.375 C 299.996094 761.066406 298.976562 761.785156 297.972656 762.527344 C 296.972656 763.269531 295.988281 764.039062 295.023438 764.832031 C 294.058594 765.621094 293.113281 766.4375 292.191406 767.273438 C 291.265625 768.113281 290.363281 768.972656 289.480469 769.855469 C 288.597656 770.738281 287.738281 771.640625 286.898438 772.566406 C 286.0625 773.488281 285.246094 774.433594 284.457031 775.398438 C 283.664062 776.363281 282.894531 777.347656 282.152344 778.347656 C 281.410156 779.351562 280.691406 780.371094 280 781.40625 C 279.304688 782.445312 278.636719 783.5 277.996094 784.570312 C 277.355469 785.640625 276.742188 786.722656 276.152344 787.824219 C 275.5625 788.925781 275.003906 790.039062 274.46875 791.167969 C 273.9375 792.292969 273.429688 793.433594 272.953125 794.585938 C 272.476562 795.742188 272.027344 796.902344 271.605469 798.078125 C 271.1875 799.253906 270.796875 800.4375 270.433594 801.632812 C 270.070312 802.824219 269.738281 804.027344 269.433594 805.238281 C 269.132812 806.449219 268.859375 807.664062 268.613281 808.890625 C 268.371094 810.113281 268.160156 811.34375 267.976562 812.574219 C 267.792969 813.808594 267.640625 815.046875 267.515625 816.289062 C 267.394531 817.53125 267.304688 818.773438 267.242188 820.023438 C 267.179688 821.269531 267.148438 822.515625 267.148438 823.761719 C 267.148438 825.011719 267.179688 826.257812 267.242188 827.503906 C 267.304688 828.75 267.394531 829.992188 267.515625 831.234375 C 267.640625 832.476562 267.792969 833.714844 267.976562 834.949219 C 268.160156 836.183594 268.371094 837.410156 268.613281 838.636719 C 268.859375 839.859375 269.132812 841.078125 269.433594 842.285156 C 269.738281 843.496094 270.070312 844.699219 270.433594 845.894531 C 270.796875 847.085938 271.1875 848.269531 271.605469 849.445312 C 272.027344 850.621094 272.476562 851.785156 272.953125 852.9375 C 273.429688 854.089844 273.9375 855.230469 274.46875 856.359375 C 275.003906 857.484375 275.5625 858.601562 276.152344 859.699219 C 276.742188 860.800781 277.355469 861.886719 277.996094 862.957031 C 278.636719 864.027344 279.304688 865.082031 280 866.117188 C 280.691406 867.15625 281.410156 868.175781 282.152344 869.175781 C 282.894531 870.179688 283.664062 871.164062 284.457031 872.128906 C 285.246094 873.089844 286.0625 874.035156 286.898438 874.960938 C 287.738281 875.886719 288.597656 876.789062 289.480469 877.671875 C 290.363281 878.554688 291.265625 879.414062 292.191406 880.25 C 293.113281 881.089844 294.058594 881.902344 295.023438 882.695312 C 295.988281 883.488281 296.972656 884.253906 297.972656 884.996094 C 298.976562 885.742188 299.996094 886.457031 301.03125 887.152344 C 302.070312 887.84375 303.125 888.511719 304.195312 889.152344 C 305.265625 889.796875 306.347656 890.410156 307.449219 890.996094 C 308.550781 891.585938 309.664062 892.148438 310.792969 892.679688 C 311.917969 893.214844 313.058594 893.71875 314.210938 894.195312 C 315.367188 894.675781 316.527344 895.125 317.703125 895.542969 C 318.878906 895.964844 320.0625 896.355469 321.257812 896.71875 C 322.449219 897.078125 323.652344 897.410156 324.863281 897.714844 C 326.074219 898.019531 327.289062 898.292969 328.515625 898.535156 C 329.738281 898.777344 330.96875 898.992188 332.203125 899.175781 C 333.433594 899.359375 334.671875 899.511719 335.914062 899.632812 C 337.15625 899.753906 338.402344 899.847656 339.648438 899.90625 C 340.894531 899.96875 342.140625 900 343.386719 900 C 344.636719 900 345.882812 899.96875 347.128906 899.90625 C 348.375 899.847656 349.617188 899.753906 350.859375 899.632812 C 352.101562 899.511719 353.339844 899.359375 354.574219 899.175781 C 355.808594 898.992188 357.035156 898.777344 358.261719 898.535156 C 359.484375 898.292969 360.703125 898.019531 361.910156 897.714844 C 363.121094 897.410156 364.324219 897.078125 365.519531 896.71875 C 366.710938 896.355469 367.898438 895.964844 369.070312 895.542969 C 370.246094 895.125 371.410156 894.675781 372.5625 894.195312 C 373.714844 893.71875 374.855469 893.214844 375.984375 892.679688 C 377.109375 892.148438 378.226562 891.585938 379.324219 891 C 380.425781 890.410156 381.511719 889.796875 382.582031 889.152344 C 383.652344 888.511719 384.707031 887.84375 385.742188 887.152344 C 386.78125 886.457031 387.800781 885.738281 388.800781 884.996094 C 389.804688 884.253906 390.789062 883.488281 391.753906 882.695312 C 392.714844 881.902344 393.660156 881.089844 394.585938 880.25 C 395.511719 879.414062 396.414062 878.554688 397.296875 877.671875 C 398.179688 876.789062 399.039062 875.886719 399.875 874.960938 C 400.714844 874.035156 401.527344 873.089844 402.320312 872.128906 C 403.113281 871.164062 403.878906 870.179688 404.621094 869.175781 C 405.367188 868.175781 406.082031 867.15625 406.777344 866.117188 C 407.46875 865.082031 408.136719 864.027344 408.777344 862.957031 C 409.421875 861.886719 410.035156 860.800781 410.625 859.699219 C 411.210938 858.601562 411.773438 857.484375 412.304688 856.359375 C 412.839844 855.230469 413.34375 854.089844 413.820312 852.9375 C 414.300781 851.785156 414.75 850.621094 415.167969 849.445312 C 415.589844 848.269531 415.980469 847.085938 416.34375 845.894531 C 416.703125 844.699219 417.039062 843.496094 417.339844 842.285156 C 417.644531 841.078125 417.917969 839.859375 418.160156 838.636719 C 418.402344 837.410156 418.617188 836.183594 418.800781 834.949219 C 418.984375 833.714844 419.136719 832.476562 419.257812 831.234375 C 419.378906 829.992188 419.472656 828.75 419.535156 827.503906 C 419.59375 826.257812 419.625 825.011719 419.625 823.761719 C 419.535156 816.132812 418.296875 808.695312 415.914062 801.449219 L 416.0625 801.976562 L 502.949219 715.085938 C 506.476562 717.78125 510.074219 720.367188 513.746094 722.855469 C 517.417969 725.34375 521.160156 727.726562 524.96875 730 C 528.773438 732.273438 532.644531 734.441406 536.574219 736.496094 C 540.507812 738.550781 544.492188 740.492188 548.53125 742.320312 C 552.574219 744.152344 556.664062 745.863281 560.800781 747.460938 C 564.941406 749.054688 569.121094 750.535156 573.34375 751.894531 C 577.566406 753.25 581.824219 754.488281 586.117188 755.605469 C 590.40625 756.722656 594.730469 757.71875 599.078125 758.589844 C 603.425781 759.460938 607.796875 760.210938 612.1875 760.832031 C 616.582031 761.457031 620.988281 761.957031 625.40625 762.328125 C 629.828125 762.703125 634.253906 762.949219 638.6875 763.070312 C 643.121094 763.191406 647.554688 763.1875 651.988281 763.058594 C 656.421875 762.929688 660.847656 762.671875 665.269531 762.292969 C 669.6875 761.910156 674.09375 761.402344 678.484375 760.773438 C 682.875 760.140625 687.242188 759.382812 691.589844 758.503906 C 695.9375 757.625 700.257812 756.621094 704.546875 755.496094 C 708.835938 754.371094 713.09375 753.125 717.3125 751.757812 C 721.53125 750.390625 725.710938 748.90625 729.84375 747.300781 C 733.980469 745.695312 738.066406 743.976562 742.105469 742.140625 C 746.140625 740.304688 750.125 738.355469 754.050781 736.292969 C 757.976562 734.230469 761.84375 732.058594 765.648438 729.773438 C 769.449219 727.492188 773.1875 725.105469 776.855469 722.609375 C 780.523438 720.117188 784.117188 717.519531 787.636719 714.820312 C 791.15625 712.121094 794.597656 709.328125 797.960938 706.433594 C 801.320312 703.539062 804.597656 700.550781 807.789062 697.472656 C 810.980469 694.390625 814.082031 691.222656 817.09375 687.96875 C 820.105469 684.710938 823.023438 681.371094 825.847656 677.949219 C 828.667969 674.527344 831.390625 671.027344 834.015625 667.453125 C 836.636719 663.875 839.15625 660.226562 841.574219 656.507812 C 843.992188 652.789062 846.300781 649.003906 848.5 645.152344 C 850.703125 641.300781 852.792969 637.390625 854.769531 633.421875 C 856.75 629.449219 858.613281 625.429688 860.367188 621.351562 C 862.117188 617.277344 863.75 613.15625 865.265625 608.988281 C 866.78125 604.816406 868.179688 600.609375 869.457031 596.363281 C 870.734375 592.113281 871.890625 587.835938 872.925781 583.519531 C 873.957031 579.207031 874.871094 574.867188 875.65625 570.503906 C 876.445312 566.136719 877.109375 561.753906 877.648438 557.351562 C 878.1875 552.949219 878.597656 548.535156 878.886719 544.109375 C 879.175781 539.679688 879.335938 535.25 879.375 530.816406 C 879.410156 526.378906 879.320312 521.945312 879.105469 517.515625 C 878.890625 513.085938 878.546875 508.664062 878.082031 504.253906 C 877.613281 499.84375 877.023438 495.449219 876.308594 491.070312 C 875.589844 486.695312 874.75 482.339844 873.789062 478.011719 C 872.824219 473.679688 871.738281 469.382812 870.53125 465.113281 C 869.324219 460.847656 867.996094 456.617188 866.546875 452.421875 C 865.097656 448.230469 863.535156 444.082031 861.851562 439.976562 C 860.167969 435.875 858.367188 431.820312 856.453125 427.820312 C 854.539062 423.820312 852.515625 419.875 850.375 415.988281 C 848.238281 412.101562 845.992188 408.28125 843.636719 404.519531 C 841.28125 400.761719 838.824219 397.074219 836.257812 393.453125 C 833.691406 389.835938 831.027344 386.292969 828.261719 382.824219 C 825.496094 379.355469 822.632812 375.96875 819.675781 372.664062 C 816.71875 369.359375 813.667969 366.140625 810.527344 363.007812 C 807.386719 359.875 804.160156 356.835938 800.84375 353.886719 C 797.53125 350.9375 794.136719 348.085938 790.660156 345.332031 C 787.1875 342.574219 783.632812 339.921875 780.007812 337.367188 C 776.382812 334.8125 772.683594 332.363281 768.917969 330.019531 C 765.152344 327.675781 761.324219 325.441406 757.433594 323.3125 C 753.539062 321.1875 749.589844 319.171875 745.582031 317.269531 C 741.574219 315.367188 737.519531 313.582031 733.410156 311.910156 C 729.300781 310.238281 725.148438 308.683594 720.953125 307.246094 C 716.753906 305.8125 712.519531 304.496094 708.25 303.300781 C 703.976562 302.105469 699.675781 301.03125 695.34375 300.082031 C 691.011719 299.128906 686.65625 298.304688 682.273438 297.601562 L 680.925781 297.414062 Z M 645 649.050781 C 643.035156 649.046875 641.066406 648.992188 639.105469 648.890625 C 637.140625 648.789062 635.179688 648.640625 633.222656 648.441406 C 631.265625 648.246094 629.316406 648 627.371094 647.707031 C 625.425781 647.414062 623.492188 647.070312 621.5625 646.683594 C 619.636719 646.296875 617.71875 645.859375 615.8125 645.378906 C 613.90625 644.894531 612.011719 644.367188 610.132812 643.792969 C 608.25 643.214844 606.386719 642.59375 604.535156 641.929688 C 602.683594 641.261719 600.851562 640.550781 599.039062 639.792969 C 597.222656 639.035156 595.425781 638.234375 593.652344 637.390625 C 591.875 636.546875 590.121094 635.660156 588.390625 634.726562 C 586.65625 633.796875 584.949219 632.824219 583.265625 631.808594 C 581.578125 630.792969 579.921875 629.738281 578.289062 628.644531 C 576.65625 627.546875 575.050781 626.410156 573.472656 625.234375 C 571.898438 624.0625 570.347656 622.847656 568.832031 621.597656 C 567.316406 620.347656 565.828125 619.058594 564.375 617.734375 C 562.921875 616.414062 561.5 615.054688 560.113281 613.660156 C 558.722656 612.265625 557.371094 610.839844 556.054688 609.378906 C 554.734375 607.921875 553.453125 606.429688 552.210938 604.90625 C 550.964844 603.382812 549.757812 601.832031 548.589844 600.25 C 547.421875 598.667969 546.292969 597.058594 545.203125 595.421875 C 544.117188 593.785156 543.066406 592.121094 542.058594 590.433594 C 541.050781 588.742188 540.085938 587.03125 539.160156 585.296875 C 538.238281 583.558594 537.359375 581.800781 536.519531 580.023438 C 535.683594 578.242188 534.890625 576.445312 534.140625 574.625 C 533.390625 572.808594 532.6875 570.972656 532.027344 569.117188 C 531.371094 567.265625 530.757812 565.398438 530.1875 563.515625 C 529.621094 561.632812 529.101562 559.738281 528.625 557.828125 C 528.152344 555.921875 527.722656 554 527.34375 552.070312 C 526.964844 550.140625 526.628906 548.203125 526.34375 546.257812 C 526.058594 544.3125 525.824219 542.363281 525.632812 540.402344 C 525.445312 538.445312 525.304688 536.484375 525.210938 534.523438 C 525.117188 532.558594 525.070312 530.59375 525.074219 528.625 C 525.078125 526.660156 525.128906 524.695312 525.230469 522.730469 C 525.328125 520.765625 525.476562 518.804688 525.671875 516.847656 C 525.867188 514.890625 526.113281 512.941406 526.40625 510.996094 C 526.695312 509.050781 527.035156 507.113281 527.421875 505.1875 C 527.808594 503.257812 528.242188 501.339844 528.722656 499.433594 C 529.203125 497.527344 529.730469 495.632812 530.304688 493.753906 C 530.878906 491.871094 531.496094 490.003906 532.164062 488.15625 C 532.828125 486.304688 533.539062 484.472656 534.292969 482.65625 C 535.046875 480.839844 535.847656 479.042969 536.691406 477.265625 C 537.535156 475.492188 538.421875 473.734375 539.351562 472.003906 C 540.28125 470.269531 541.25 468.5625 542.265625 466.875 C 543.277344 465.191406 544.332031 463.53125 545.425781 461.898438 C 546.523438 460.261719 547.65625 458.65625 548.828125 457.078125 C 550.003906 455.5 551.214844 453.953125 552.464844 452.433594 C 553.714844 450.917969 555 449.429688 556.320312 447.972656 C 557.644531 446.519531 559 445.097656 560.394531 443.707031 C 561.785156 442.320312 563.210938 440.964844 564.671875 439.644531 C 566.128906 438.328125 567.621094 437.046875 569.140625 435.800781 C 570.664062 434.554688 572.214844 433.347656 573.792969 432.175781 C 575.375 431.007812 576.984375 429.875 578.621094 428.785156 C 580.257812 427.695312 581.917969 426.644531 583.605469 425.636719 C 585.296875 424.625 587.007812 423.660156 588.742188 422.734375 C 590.476562 421.808594 592.234375 420.925781 594.011719 420.089844 C 595.792969 419.25 597.589844 418.453125 599.40625 417.703125 C 601.226562 416.953125 603.058594 416.246094 604.910156 415.585938 C 606.765625 414.925781 608.632812 414.3125 610.515625 413.742188 C 612.394531 413.175781 614.292969 412.652344 616.199219 412.175781 C 618.109375 411.699219 620.027344 411.269531 621.957031 410.886719 C 623.882812 410.507812 625.820312 410.171875 627.765625 409.886719 C 629.710938 409.597656 631.664062 409.359375 633.621094 409.167969 C 635.578125 408.976562 637.539062 408.835938 639.503906 408.742188 C 641.46875 408.644531 643.433594 408.597656 645.398438 408.601562 C 647.367188 408.601562 649.332031 408.652344 651.296875 408.75 C 653.257812 408.847656 655.21875 408.996094 657.175781 409.1875 C 659.132812 409.382812 661.085938 409.625 663.03125 409.914062 C 664.976562 410.203125 666.910156 410.542969 668.839844 410.925781 C 670.769531 411.3125 672.6875 411.746094 674.59375 412.222656 C 676.5 412.703125 678.394531 413.230469 680.277344 413.800781 C 682.160156 414.371094 684.023438 414.992188 685.875 415.65625 C 687.726562 416.316406 689.5625 417.027344 691.378906 417.78125 C 693.195312 418.535156 694.988281 419.332031 696.765625 420.175781 C 698.542969 421.015625 700.300781 421.902344 702.035156 422.828125 C 703.769531 423.757812 705.476562 424.726562 707.164062 425.738281 C 708.851562 426.75 710.511719 427.804688 712.144531 428.898438 C 713.78125 429.988281 715.386719 431.121094 716.964844 432.296875 C 718.542969 433.46875 720.09375 434.675781 721.613281 435.925781 C 723.132812 437.175781 724.621094 438.457031 726.078125 439.78125 C 727.535156 441.101562 728.957031 442.457031 730.347656 443.847656 C 731.738281 445.238281 733.09375 446.664062 734.414062 448.121094 C 735.730469 449.578125 737.015625 451.070312 738.261719 452.589844 C 739.511719 454.109375 740.71875 455.660156 741.890625 457.238281 C 743.0625 458.820312 744.191406 460.425781 745.285156 462.0625 C 746.375 463.699219 747.425781 465.359375 748.4375 467.046875 C 749.449219 468.734375 750.417969 470.445312 751.34375 472.179688 C 752.269531 473.914062 753.152344 475.667969 753.992188 477.449219 C 754.835938 479.226562 755.628906 481.023438 756.382812 482.839844 C 757.136719 484.65625 757.84375 486.492188 758.503906 488.34375 C 759.167969 490.195312 759.78125 492.0625 760.351562 493.945312 C 760.925781 495.824219 761.449219 497.71875 761.925781 499.628906 C 762.402344 501.535156 762.832031 503.453125 763.21875 505.382812 C 763.601562 507.3125 763.9375 509.25 764.226562 511.195312 C 764.511719 513.140625 764.753906 515.089844 764.945312 517.046875 C 765.140625 519.003906 765.285156 520.964844 765.378906 522.929688 C 765.476562 524.894531 765.523438 526.859375 765.523438 528.824219 L 765.523438 528.898438 C 765.523438 530.867188 765.476562 532.832031 765.378906 534.800781 C 765.285156 536.765625 765.140625 538.726562 764.945312 540.683594 C 764.753906 542.640625 764.511719 544.59375 764.222656 546.539062 C 763.933594 548.488281 763.597656 550.425781 763.214844 552.355469 C 762.832031 554.285156 762.398438 556.203125 761.921875 558.113281 C 761.445312 560.019531 760.917969 561.917969 760.347656 563.800781 C 759.777344 565.683594 759.160156 567.550781 758.496094 569.402344 C 757.835938 571.253906 757.125 573.089844 756.375 574.90625 C 755.621094 576.726562 754.824219 578.523438 753.980469 580.304688 C 753.140625 582.082031 752.257812 583.839844 751.328125 585.574219 C 750.402344 587.308594 749.433594 589.019531 748.421875 590.707031 C 747.410156 592.394531 746.355469 594.058594 745.261719 595.691406 C 744.171875 597.328125 743.039062 598.9375 741.867188 600.519531 C 740.695312 602.097656 739.484375 603.648438 738.234375 605.167969 C 736.988281 606.691406 735.703125 608.179688 734.378906 609.636719 C 733.058594 611.097656 731.703125 612.519531 730.3125 613.910156 C 728.921875 615.304688 727.496094 616.660156 726.039062 617.980469 C 724.582031 619.300781 723.089844 620.585938 721.570312 621.835938 C 720.050781 623.082031 718.5 624.292969 716.917969 625.464844 C 715.335938 626.636719 713.730469 627.769531 712.09375 628.863281 C 710.457031 629.957031 708.796875 631.007812 707.109375 632.019531 C 705.421875 633.03125 703.707031 634 701.972656 634.929688 C 700.238281 635.855469 698.480469 636.742188 696.703125 637.582031 C 694.925781 638.421875 693.125 639.21875 691.308594 639.972656 C 689.488281 640.726562 687.65625 641.433594 685.800781 642.097656 C 683.949219 642.761719 682.082031 643.375 680.199219 643.949219 C 678.316406 644.519531 676.421875 645.042969 674.511719 645.523438 C 672.601562 646 670.683594 646.429688 668.753906 646.816406 C 666.824219 647.199219 664.886719 647.535156 662.941406 647.824219 C 660.996094 648.113281 659.042969 648.351562 657.085938 648.546875 C 655.125 648.738281 653.164062 648.882812 651.199219 648.980469 C 649.234375 649.078125 647.265625 649.125 645.300781 649.125 Z M 645 649.050781 " fill-opacity="1" fill-rule="nonzero"/></svg>