<svg xmlns="http://www.w3.org/2000/svg" xmlns:xlink="http://www.w3.org/1999/xlink" width="1200" zoomAndPan="magnify" viewBox="0 0 900 899.99999" height="1200" preserveAspectRatio="xMidYMid meet" version="1.0"><rect x="-90" width="1080" fill="#ffffff" y="-89.999999" height="1079.999988" fill-opacity="1"/><rect x="-90" width="1080" fill="#0ea37f" y="-89.999999" height="1079.999988" fill-opacity="1"/><path fill="#ffffff" d="M 345.191406 328.691406 L 345.191406 243.953125 C 345.191406 236.816406 347.867188 231.460938 354.109375 227.898438 L 524.480469 129.78125 C 547.671875 116.40625 575.324219 110.164062 603.863281 110.164062 C 710.898438 110.164062 778.691406 193.117188 778.691406 281.421875 C 778.691406 287.660156 778.691406 294.796875 777.796875 301.933594 L 601.183594 198.464844 C 590.484375 192.222656 579.777344 192.222656 569.074219 198.464844 Z M 743.007812 658.722656 L 743.007812 456.238281 C 743.007812 443.75 737.65625 434.832031 726.953125 428.585938 L 503.070312 298.363281 L 576.210938 256.4375 C 582.453125 252.871094 587.808594 252.871094 594.046875 256.4375 L 764.417969 354.554688 C 813.480469 383.101562 846.480469 443.75 846.480469 502.617188 C 846.480469 570.40625 806.34375 632.84375 743.007812 658.714844 Z M 292.566406 480.328125 L 219.421875 437.515625 C 213.183594 433.953125 210.503906 428.597656 210.503906 421.460938 L 210.503906 225.230469 C 210.503906 129.792969 283.644531 57.539062 382.65625 57.539062 C 420.125 57.539062 454.902344 70.027344 484.347656 92.324219 L 308.628906 194.015625 C 297.929688 200.253906 292.574219 209.175781 292.574219 221.664062 L 292.574219 480.335938 Z M 450 571.308594 L 345.191406 512.441406 L 345.191406 387.566406 L 450 328.699219 L 554.800781 387.566406 L 554.800781 512.441406 Z M 517.34375 842.472656 C 479.875 842.472656 445.097656 829.980469 415.652344 807.683594 L 591.371094 705.992188 C 602.074219 699.753906 607.425781 690.832031 607.425781 678.339844 L 607.425781 419.671875 L 681.460938 462.484375 C 687.703125 466.046875 690.382812 471.402344 690.382812 478.539062 L 690.382812 674.769531 C 690.382812 770.207031 616.347656 842.464844 517.34375 842.464844 Z M 305.941406 643.5625 L 135.574219 545.445312 C 86.511719 516.898438 53.511719 456.25 53.511719 397.382812 C 53.511719 328.699219 94.542969 267.15625 157.871094 241.285156 L 157.871094 444.652344 C 157.871094 457.144531 163.226562 466.066406 173.925781 472.304688 L 396.921875 601.636719 L 323.78125 643.5625 C 317.539062 647.125 312.183594 647.125 305.941406 643.5625 Z M 296.136719 789.84375 C 195.34375 789.84375 121.308594 714.027344 121.308594 620.371094 C 121.308594 613.234375 122.203125 606.097656 123.089844 598.960938 L 298.804688 700.644531 C 309.507812 706.890625 320.214844 706.890625 330.917969 700.644531 L 554.800781 571.316406 L 554.800781 656.054688 C 554.800781 663.191406 552.125 668.546875 545.878906 672.109375 L 375.511719 770.222656 C 352.320312 783.605469 324.667969 789.84375 296.128906 789.84375 Z M 517.34375 895.984375 C 625.269531 895.984375 715.359375 819.277344 735.882812 717.589844 C 835.777344 691.722656 900 598.066406 900 502.628906 C 900 440.1875 873.242188 379.539062 825.074219 335.828125 C 829.539062 317.09375 832.214844 298.363281 832.214844 279.636719 C 832.214844 152.089844 728.742188 56.640625 609.21875 56.640625 C 585.140625 56.640625 561.945312 60.207031 538.753906 68.238281 C 498.609375 28.988281 443.304688 4.015625 382.65625 4.015625 C 274.726562 4.015625 184.644531 80.722656 164.121094 182.410156 C 64.222656 208.277344 0 301.933594 0 397.371094 C 0 459.8125 26.757812 520.460938 74.921875 564.171875 C 70.464844 582.902344 67.785156 601.636719 67.785156 620.363281 C 67.785156 747.910156 171.257812 843.355469 290.78125 843.355469 C 314.863281 843.355469 338.054688 839.792969 361.246094 831.761719 C 401.382812 871.007812 456.6875 895.984375 517.34375 895.984375 Z M 517.34375 895.984375 " fill-opacity="1" fill-rule="nonzero"/></svg>