<svg xmlns="http://www.w3.org/2000/svg" xmlns:xlink="http://www.w3.org/1999/xlink" width="1200" zoomAndPan="magnify" viewBox="0 0 900 899.99999" height="1200" preserveAspectRatio="xMidYMid meet" version="1.0"><path fill="#1dbbb2" d="M 226.09375 795.507812 L 331.152344 673.609375 C 308.101562 636.820312 303.667969 591.164062 319.625 550.828125 C 341.789062 493.644531 397.640625 460.398438 458.367188 463.945312 C 473.882812 464.832031 488.953125 468.378906 503.136719 474.582031 L 608.636719 352.242188 C 578.050781 332.738281 543.917969 318.996094 508.457031 311.90625 C 546.578125 265.804688 682.21875 108.886719 682.21875 108.886719 L 561.648438 0.734375 C 561.648438 0.734375 380.351562 215.714844 319.625 290.628906 L 210.582031 425.378906 C 164.039062 482.5625 144.976562 566.777344 154.730469 639.476562 C 162.710938 697.546875 187.53125 751.628906 226.09375 795.507812 " fill-opacity="1" fill-rule="nonzero"/><path fill="#000000" d="M 719.453125 480.347656 C 706.597656 449.761719 688.421875 421.839844 665.375 398.34375 L 560.761719 519.796875 C 582.484375 548.609375 592.234375 584.957031 587.359375 620.859375 C 577.164062 693.558594 504.910156 753.839844 430 739.65625 C 414.042969 737.441406 398.085938 732.121094 383.898438 724.144531 L 280.621094 843.824219 C 349.769531 893.027344 436.648438 909.429688 519.097656 889.925781 C 695.957031 846.484375 794.363281 647.015625 719.453125 480.347656 " fill-opacity="1" fill-rule="nonzero"/></svg>